PathFileType	4	(X/Y/Z)	D:\TRACE\spot_10-12-23\spot_body_motion_1_5-platform.trc
DataRate	CameraRate	NumFrames	NumMarkers	Units	OrigDataRate	OrigDataStartFrame	OrigNumFrames
100.00	100.00	      67	5	mm	100.00	4376	      7000
Frame#	Time	Left_Front			Right_Front			Left_Aft			Right_Aft			Post			
		X1	Y1	Z1	X2	Y2	Z2	X3	Y3	Z3	X4	Y4	Z4	X5	Y5	Z5	

4376	43.750	-763.57770	-0.10329	-643.00482	808.95758	4.83865	-636.08752	-680.79840	9.42982	495.04630	736.48389	15.09655	581.04407	19.20990	735.01825	-967.86371	
4377	43.760	-762.71881	0.73826	-642.79028	809.83997	5.39767	-635.90625	-679.82007	9.26307	494.89767	737.70758	14.82637	581.22034	19.90657	735.69489	-967.27496	
4378	43.770	-761.68298	1.11003	-642.80737	810.66370	5.86054	-636.01556	-678.82025	8.83829	495.37085	738.36462	14.39268	581.16315	20.60548	736.35162	-966.70831	
4379	43.780	-760.90540	1.67514	-642.64911	811.74994	6.49694	-635.82330	-677.76190	8.38818	495.36523	739.46582	13.99542	581.29425	21.67719	737.23840	-965.93091	
4380	43.790	-760.05756	2.36220	-642.66022	812.60577	6.81524	-635.76385	-676.85986	8.05444	495.40335	740.35931	13.57048	581.43323	22.67919	737.66693	-965.41058	
4381	43.800	-758.82410	2.42871	-642.45294	813.40540	7.12707	-635.56421	-676.11157	7.87052	495.31781	741.21002	13.28270	581.59027	23.86632	738.54791	-964.53082	
4382	43.810	-758.16840	3.10005	-642.33197	814.51093	7.76883	-635.33057	-675.00574	7.49015	495.55814	742.13354	12.78036	581.67542	24.51621	739.18292	-963.84113	
4383	43.820	-757.32745	3.62716	-642.15613	815.47577	8.26395	-635.43182	-674.05426	7.27784	495.81754	743.09253	12.48174	581.82153	25.22328	739.91357	-963.46399	
4384	43.830	-756.20044	3.91783	-642.08667	816.17938	8.78751	-635.29236	-673.45837	6.89530	495.77505	744.00238	12.09502	581.95416	26.33721	740.81641	-962.62439	
4385	43.840	-755.08984	4.22626	-642.04114	816.99799	9.08859	-635.29065	-672.56958	6.66500	495.83514	744.70728	11.75199	581.98267	27.16183	741.40894	-961.99292	
4386	43.850	-754.41345	5.03547	-641.77765	818.22894	9.94413	-635.18793	-671.48071	6.22223	496.08191	745.79742	11.31440	582.14606	28.01647	742.07788	-961.46362	
4387	43.860	-753.76996	5.70705	-641.73920	818.99475	10.38571	-634.87256	-670.55231	5.84169	496.26639	746.70807	10.87648	582.15253	29.07135	742.74097	-960.77789	
4388	43.870	-752.77240	6.14472	-641.68878	819.75348	10.65342	-634.80847	-669.76245	5.72131	496.19189	747.68079	10.00553	581.55316	29.74209	743.52423	-960.33905	
4389	43.880	-751.97803	6.63441	-641.44000	820.76868	11.31427	-634.54724	-668.89636	5.46743	496.34869	747.94843	9.04873	582.10266	30.95095	744.29858	-959.42859	
4390	43.890	-751.16327	7.18422	-641.45801	821.51984	11.88439	-634.68817	-668.13586	4.97589	496.39789	748.87909	8.72542	582.26013	31.50832	745.16998	-958.83667	
4391	43.900	-750.33038	7.67522	-641.26257	822.42114	12.24884	-634.37885	-667.16479	4.39999	496.64813	749.64465	8.37547	582.42786	32.27831	745.79205	-958.31848	
4392	43.910	-749.60760	8.06838	-641.03070	822.97040	12.62608	-634.25812	-666.40411	4.19045	496.74216	750.61078	8.01061	582.54352	33.34166	746.51282	-957.45410	
4393	43.920	-748.54510	8.55230	-641.07153	824.02356	13.17951	-634.35535	-665.55298	3.94757	496.72632	751.51605	7.65618	582.76257	33.76764	747.11450	-956.86572	
4394	43.930	-747.67212	8.83417	-640.92078	825.06335	13.85395	-634.07178	-664.85120	3.58859	496.81961	752.20557	7.30612	582.94226	34.98221	747.92914	-956.07086	
4395	43.940	-747.11371	9.63810	-640.84229	825.49268	14.27173	-633.80975	-663.85809	3.12839	497.02222	752.92798	6.96186	583.07721	35.53696	748.66296	-955.26221	
4396	43.950	-746.22180	10.29914	-640.68689	826.37677	14.95668	-633.95404	-663.03278	2.85488	497.18045	753.98853	6.73277	583.23834	36.15922	749.54047	-954.73352	
4397	43.960	-745.53925	10.53970	-640.56512	827.13501	15.29396	-633.92578	-662.47815	2.59664	497.22903	754.79834	6.36466	583.23590	37.25338	750.32593	-953.78302	
4398	43.970	-744.51642	10.90335	-640.64667	828.05151	15.71048	-633.50995	-661.74023	2.16090	497.34784	755.33264	6.06693	583.44910	37.76738	751.02795	-953.27405	
4399	43.980	-743.90704	11.54646	-640.22205	828.50342	16.35553	-633.54761	-660.86462	1.66096	497.50211	756.17065	5.54946	583.61469	38.34277	751.67853	-952.79584	
4400	43.990	-743.17255	11.97054	-640.03723	829.25037	16.83729	-633.37354	-660.13605	1.38268	497.50558	757.08636	5.27649	583.76080	39.61377	752.54956	-951.94067	
4401	44.000	-742.39935	12.67065	-640.04279	830.10132	17.36692	-633.13153	-659.43005	1.26678	497.65555	757.85834	4.90209	583.79016	40.08319	753.21338	-951.53290	
4402	44.010	-741.70111	12.92894	-639.87268	831.09253	17.89455	-633.00745	-658.75671	0.92803	497.74414	758.63953	4.62085	583.88074	40.92774	754.17847	-950.85120	
4403	44.020	-740.99780	13.65391	-639.79736	831.49536	18.55939	-633.03687	-657.92389	0.50040	497.85831	759.38843	4.26342	583.96356	41.60385	754.76099	-950.02899	
4404	44.030	-740.33051	14.11883	-639.87213	831.98444	19.01886	-632.93988	-657.21899	0.08049	498.03625	760.11621	3.82960	584.10559	42.04696	755.30298	-949.33826	
4405	44.040	-739.59265	14.37251	-639.53967	832.81677	19.23684	-632.80872	-656.54639	-0.24531	498.48453	760.58710	3.50372	584.19061	42.93626	756.16595	-948.47766	
4406	44.050	-739.24530	15.14186	-639.35754	833.54321	19.90625	-632.63074	-655.93066	-0.69930	498.61276	761.30182	2.99940	584.30188	43.50878	756.75873	-947.92804	
4407	44.060	-738.37579	15.67312	-639.28149	834.09332	20.32675	-632.53357	-655.39514	-0.95943	498.57504	761.95288	2.66056	584.49707	43.98891	757.53943	-947.34851	
4408	44.070	-737.88574	16.04371	-639.27380	834.61322	20.76267	-632.33356	-654.82928	-1.19540	498.42609	762.66144	2.33388	584.61670	44.73217	758.27820	-946.61615	
4409	44.080	-737.33105	16.41042	-639.04425	835.28497	21.15340	-632.08264	-654.08130	-1.77886	498.73837	763.12994	1.96561	584.63422	45.38195	759.03149	-945.95660	
4410	44.090	-736.67725	17.02086	-638.90924	835.88477	21.76887	-632.11536	-653.53931	-1.96509	498.89648	763.78241	1.52324	584.66614	45.91850	759.57892	-945.36230	
4411	44.100	-736.14325	17.41351	-638.75061	836.41144	22.42265	-632.20264	-652.83307	-2.40708	499.14249	764.36334	1.09905	584.76111	46.38750	760.28522	-944.73474	
4412	44.110	-735.54370	17.91557	-638.61121	837.08374	22.87827	-631.88123	-652.47504	-2.58899	498.98709	764.89301	0.73281	584.94427	47.12474	761.08374	-943.98773	
4413	44.120	-735.20740	18.55445	-638.51599	837.45526	23.18621	-631.78870	-652.01105	-2.97947	499.32373	765.56604	0.29496	585.08942	47.43073	761.69916	-943.39996	
4414	44.130	-734.62805	19.06926	-638.41895	837.98315	23.59452	-631.65698	-651.39337	-3.32998	499.48965	765.94391	0.00603	585.21320	47.84993	762.58398	-942.85876	
4415	44.140	-734.27386	19.44486	-638.40442	838.47467	24.19270	-631.52142	-651.07245	-3.54373	499.54071	766.38116	-0.33477	585.32629	48.33449	763.19006	-942.14508	
4416	44.150	-733.67383	19.72698	-638.27209	838.74683	24.67677	-631.46967	-650.69739	-3.79418	499.45532	766.83112	-0.81653	585.36707	48.81028	763.73877	-941.36792	
4417	44.160	-733.40192	20.19843	-638.16327	839.11499	24.95697	-631.27533	-650.19666	-3.99162	499.63913	767.17023	-1.15722	585.48883	49.15993	764.37585	-940.82001	
4418	44.170	-732.90283	20.66363	-637.94568	839.80035	25.37002	-631.10986	-649.62329	-4.36185	499.81610	767.60236	-1.52642	585.57495	49.66897	765.02197	-940.22443	
4419	44.180	-732.43726	21.01434	-637.81726	840.28485	25.83278	-631.06573	-649.24512	-4.77728	499.90060	768.05048	-1.87359	585.64032	50.28953	765.63403	-939.44098	
4420	44.190	-732.20721	21.34674	-637.74622	840.69147	26.50941	-630.85889	-649.01849	-5.06148	499.95706	768.38397	-2.19549	585.72223	50.55460	766.30493	-938.89142	
4421	44.200	-731.85791	21.96224	-637.78320	840.83936	26.83671	-630.74146	-648.92993	-5.35920	499.90036	768.69788	-2.54185	585.83020	50.65915	766.78973	-938.47186	
4422	44.210	-731.53326	22.44531	-637.54065	840.88580	27.15532	-630.69684	-648.63464	-5.62751	499.97018	768.97577	-2.90761	585.96265	50.98965	767.51208	-937.90167	
4423	44.220	-731.28357	22.81490	-637.40582	841.10229	27.61210	-630.63000	-648.38904	-5.94295	500.05670	769.18042	-3.24418	585.95483	51.22970	768.16943	-937.36340	
4424	44.230	-731.18872	23.12809	-637.19159	841.40411	27.95815	-630.48291	-648.07465	-6.26726	500.18900	769.38104	-3.64123	586.01917	51.65737	768.65289	-936.74805	
4425	44.240	-731.10571	23.67554	-637.16455	841.55731	28.40157	-630.44257	-647.84344	-6.67175	500.25394	769.61047	-4.06057	586.08826	51.76106	769.34198	-936.30341	
4426	44.250	-730.89136	24.16082	-637.00513	841.60138	28.84304	-630.30383	-647.75049	-6.97911	500.31458	769.66260	-4.42147	586.13965	51.76553	770.06287	-935.82031	
4427	44.260	-730.81677	24.52838	-636.88177	841.80768	29.22642	-630.25360	-647.69073	-7.20854	500.47305	769.75494	-4.82916	586.19727	51.79779	770.51819	-935.25385	
4428	44.270	-730.51300	24.58226	-636.79083	841.95172	29.64208	-630.17175	-647.71777	-7.36536	500.47415	769.71521	-5.11969	586.28796	51.78320	770.92358	-934.76428	
4429	44.280	-730.59692	24.95862	-636.79413	841.86444	29.91938	-630.14740	-647.67273	-7.53668	500.51422	769.78894	-5.44273	586.42194	51.96421	771.47083	-934.02313	
4430	44.290	-730.70154	25.42612	-636.76447	841.85712	30.37080	-629.99115	-647.67981	-7.66429	500.64844	769.85437	-5.67708	586.51306	52.19331	772.18109	-933.42340	
4431	44.300	-730.66260	25.85129	-636.65857	841.79730	30.71610	-630.00787	-647.57147	-7.82807	500.73022	769.87421	-5.93888	586.52472	52.08720	772.59589	-932.84644	
4432	44.310	-730.48022	26.41386	-636.63190	841.89447	30.99658	-629.94098	-647.50293	-8.12336	500.85208	769.97650	-6.26555	586.58429	52.12663	773.08929	-932.35553	
4433	44.320	-730.50830	26.64390	-636.43286	841.92346	31.29095	-629.82452	-647.43878	-8.50680	500.94870	769.97876	-6.60581	586.63324	52.04881	773.52325	-931.95361	
4434	44.330	-730.37323	26.94345	-636.41907	842.04730	31.59851	-629.65570	-647.37885	-8.82957	501.03784	770.02362	-6.88696	586.72186	52.07622	774.04700	-931.55096	
4435	44.340	-730.35516	27.17814	-636.38367	842.03503	31.96309	-629.54169	-647.42719	-9.01592	501.08707	770.06519	-7.13832	586.76190	52.24640	774.49353	-931.19171	
4436	44.350	-730.38000	27.43570	-636.28705	842.08167	32.38128	-629.41205	-647.35492	-9.26823	501.08585	770.06873	-7.33300	586.80157	52.21564	775.08148	-930.70648	
4437	44.360	-730.44397	27.81660	-636.18744	842.07379	32.79641	-629.36383	-647.40338	-9.53657	501.10074	770.18713	-7.66713	586.88940	52.18979	775.49530	-930.36536	
4438	44.370	-730.48157	28.15610	-635.99066	842.02673	33.07719	-629.27240	-647.47205	-9.72386	501.07431	770.10358	-7.98096	587.07104	52.18113	776.06390	-929.84204	
4439	44.380	-730.58044	28.53325	-635.88275	841.95178	33.38845	-629.18854	-647.54773	-9.92657	501.16672	770.15656	-8.32268	587.12469	52.22416	776.54626	-929.40216	
4440	44.390	-730.67957	28.93147	-635.80267	841.69336	33.75448	-629.04877	-647.66028	-10.14271	501.26929	770.05182	-8.54499	587.19086	52.11563	776.83624	-929.12396	
4441	44.400	-730.84241	29.27885	-635.73822	841.65521	34.02692	-628.91779	-647.76099	-10.51633	501.63293	769.90497	-8.75668	587.20782	51.79204	777.38635	-928.56396	
4442	44.410	-731.07837	29.47951	-635.62817	841.49939	34.33520	-628.80695	-648.06097	-10.61035	501.42432	769.48724	-8.99290	587.23053	51.39886	777.86816	-928.07965	
